<?xml version="1.0" encoding="UTF-8"?>
<svg id="Layer_2" xmlns="http://www.w3.org/2000/svg" version="1.1" viewBox="0 0 958.6 909.9">
  <!-- Generator: Adobe Illustrator 29.7.1, SVG Export Plug-In . SVG Version: 2.1.1 Build 8)  -->
  <defs>
    <style>
      .st0 {
        fill: #ffc629;
      }
    </style>
  </defs>
  <g id="Layer_1-2">
    <g>
      <path class="st0" d="M2.2,686.7h143.3c1.2,0,2.1-1,2.1-2.2v-129c0-1.2-1-2.2-2.2-2.2h-61.4c-1.2,0-2.2,1-2.2,2.2v83.8h-15.9v-120.7h79.6c1.2,0,2.1-1,2.1-2.2v-21.4c0-13.1-10.6-23.8-23.8-23.8H2.2c-1.2,0-2.2,1-2.2,2.1v211c0,1.2.9,2.2,2.2,2.2"/>
      <path class="st0" d="M169.5,509c-1.4,0-2.6,1.1-2.6,2.5v172.7c0,1.4,1.1,2.5,2.6,2.5h122.9c1.9,0,3.4-1.5,3.4-3.3v-171.1c0-1.8-1.5-3.3-3.4-3.3h-122.9ZM260,635.3c-10.4,8.4-54.8-6.5-58.6-40.9-3.7-33.4,20.9-54.8,29.3-53,8.5,1.9,1.9,25.1,8.5,46.5,6.3,20.3,27.4,39,20.8,47.4"/>
      <path class="st0" d="M429.6,581c5,0,9-4,9-9v-61.5c0-.9-.7-1.5-1.5-1.5h-103.7c-.3,0-.6,0-.8.2h-15.4c-1.4,0-2.5,1.1-2.5,2.5v172.6c0,1.4,1.1,2.5,2.5,2.5h43.2c1.4,0,2.5-1.1,2.5-2.5v-65.6h18v66.3c0,1,.8,1.8,1.8,1.8h46.2c5.9,0,10.6-4.8,10.6-10.7v-73c0-5.4-6.3-7.8-11.7-7.8h-18.1v-14.2h19.9ZM380.3,569.7h-17.6v-13.8c0-4.4,3-8,9.2-8s8.4,3,8.4,6.8v15h0Z"/>
      <path class="st0" d="M511.5,509.1h-50.4c-1.4,0-2.6,1.1-2.6,2.6v172.5c0,1.4,1.1,2.5,2.6,2.5h50.4c1.4,0,2.6-1.1,2.6-2.5v-172.5c0-1.4-1.2-2.6-2.6-2.6"/>
      <path class="st0" d="M585.1,509.1h-50.4c-1.4,0-2.5,1.1-2.5,2.5v172.5c0,1.4,1.2,2.6,2.5,2.6h102.7c.9,0,1.5-.7,1.5-1.6v-38.3c0-.9-.7-1.6-1.5-1.6h-49.8v-133.6c0-1.4-1.1-2.5-2.6-2.5"/>
      <path class="st0" d="M710.5,509.1h-50.4c-1.4,0-2.6,1.1-2.6,2.5v172.5c0,1.4,1.2,2.6,2.6,2.6h102.7c.9,0,1.6-.7,1.6-1.6v-38.3c0-.9-.7-1.6-1.6-1.6h-49.8v-133.6c0-1.4-1.1-2.5-2.5-2.5"/>
      <path class="st0" d="M641.1,732.2c-1.3,0-2.5,1.1-2.5,2.5v172.8c0,1.3,1.1,2.4,2.5,2.4h37.1c1.3,0,2.5-1.1,2.5-2.4v-69.4h17.9v69.4c0,1.3,1.1,2.4,2.5,2.4h46.1c1.3,0,2.5-1.1,2.5-2.4v-172.8c0-1.3-1.1-2.5-2.5-2.5h-22.4c-.3,0-76,0-76.3,0h-7.4,0ZM681,779.2c0-4.4,3-8,9.2-8s8.4,3,8.4,6.8v15h-17.5v-13.8h-.1Z"/>
      <path class="st0" d="M891.5,773.6c.9,0,1.6-.7,1.6-1.6v-11c0-16-12.9-28.9-28.9-28.9h-57.6c-.3,0-.5,0-.7.2h-34.8c-1.4,0-2.6,1.2-2.6,2.5v172.5c0,1.4,1.1,2.5,2.6,2.5h120.4c.9,0,1.6-.7,1.6-1.5v-109.5c0-1-.8-1.8-1.9-1.8h-49.8c-1,0-1.8.8-1.8,1.8v69.6h-17.5v-94.9h69.5,0Z"/>
      <path class="st0" d="M891.5,509.1h-106c-1.3,0-2.4,1.1-2.4,2.5v172.8c0,1.3,1.1,2.5,2.4,2.5h37.1c1.3,0,2.5-1.1,2.5-2.5v-69.4h17.9v69.4c0,1.3,1.1,2.5,2.5,2.5h46.1c1.3,0,2.5-1.1,2.5-2.5v-172.8c0-1.4-1.1-2.5-2.5-2.5M842.9,569.9h-17.5v-13.8c0-4.4,3-8,9.2-8s8.4,3,8.4,6.8v15h-.1Z"/>
      <path class="st0" d="M488.1,752.3c0,14.7,11.9,26.6,26.6,26.6h24.5v130.6h53.6v-130.6h27.8v-46.7h-132.4v20.2h0Z"/>
      <path class="st0" d="M539.5,192.4c17-.1,42.7-12.1,40.3-31.9-.2-1.2-.5-2.4-1.2-3.4-7.4-11.7-33.2-20.3-46.9-24.1-1.2-.4-2.5-.6-3.8-.7-44-3.2-22.7,62.2,11.6,60.2M514.3,144.7c7.4-10.1,21.5-3.6,30.4-.5-8.9,11.1,11.3,19.5,15.4,7.1,7.4,3.9,16.5,9.9,10.3,19.6-13.4,20.4-47,19.5-56.6-5.2-2.8-6-3.2-15.6.4-21.1"/>
      <path class="st0" d="M492.7,183.9c4.2,8,15.2,13.4,22.4,18.6,6.9,5,13.7,10.1,20.7,14.9,3.4,2.4,8.4,4.9,11.1,8.1,0,0,.2.2.2.3,5.5,12.2-10.4,39.2-4.1,56.3,2.7,9.2,9.2,17.4,15.3,24.7,2.5,3,5.3,7.6,8.8,9.5,11.2,4.1,23.9,3.9,35.8,3,23.8-2.1,24.3-6.1,32.7-27.1,12.7-28.8,12.9-31.2-.7-59.3-2.5-5.9-6.2-10.8.3-15.1,12.5-7.5,26.3-12.5,39.4-18.9,5.7-2.6,12.2-4.8,16.1-10.1.4-.5.7-1.1.9-1.7,2.7-9.4,11.5-45.5,8.4-51.8-6.6-8.8-15.9-16.1-25.5-21.5-4.7-2.3-10.5-.8-15.4.2-24.3,3.4-48.6,11.9-73.3,11.6-8.7-.8-17.2-2-25.9-3.3-15.4-2.2-30.8-5.5-46.2-6.8-10.2-.8-16.5,9.5-22.9,16.1-4.2,4.4-6.9,7.7-6.1,14,2.6,11.5,4.3,28.7,8.1,38.3M634.8,258c3.4,4.4-.2,10.2-7.2,14.6-6.3,3.3-13.8,2.1-20.6,1.4-16.2-1.9-24.3,17.2-47.5,10.6-4-.6-5.8-7.9-.9-7.6,1.7.4,4.2,1.3,5.9,1.6,14.7,3.8,24.8-12.8,39.1-11.2,7.5.4,16.7,2.6,22.7-2.9,1.4-1.3,3.5-3.6,4.8-5,1-1,1.7-2.5,3.6-1.4M607.3,147c16.8-10.8,34.2-19.1,53.3-20.9,17-.4,31.1,16.2,26.8,33-8.5,41.7-53.4,50.8-81,22.3-9.7-9.6-11-27.1.9-34.3M597.8,219.6c4.4-4.5,11.2-6.7,17.3-5.2,3.7,1.3,4.5,4.1,1.9,7-4.2,4.5-11,6.5-17.1,5.4-4.2-1.2-5.1-4-2.2-7.2M585.8,227.3c-6.3,1.9-11.9.3-17.1-3.4-5.7-4.5-.3-8.4,4.9-8.5,5.2.3,10,1.2,13.8,4.9,2.8,2.7,2,5.9-1.6,7.1M514.9,127.7c15-5.9,51.2,9.6,65.2,21.7,1.1,1,2.1,2.2,2.9,3.5,13.3,23.2-18.3,44.8-41.5,45-17.3.1-28.7-7.6-37.9-22.4-11.4-16.8-8.6-40.9,11.4-47.8"/>
      <path class="st0" d="M645,192.4c34.8,1.1,55.1-62.6,12.7-60.4-1.8,0-3.5.5-5.3,1-14.5,4.2-49.4,15.8-47.8,30.2,2,19.2,22.5,28.7,40.4,29.3M618.6,155.8c4.3-3.2,9.2-6,14.9-8.5,6.5-2.6,20.8-9.5,28.7-8-3.3.8-6.2,3.3-6.4,7.6,0,9.7,14.3,10.5,17.3,2.9,1.3,5.3.5,11.7-1.6,16.1-5.6,12.7-15.3,19.4-27.7,19.3-16.8-.9-41.3-16.7-25.3-29.3"/>
      <path class="st0" d="M826.3,377.5h0c-4.3-24.3-16-48.2-34-69.2-16.7-19.5-38.1-35.2-60.5-44.5l1.3-4.1c3.9-12.3,4.8-15.3,5.1-16.9.6-3.7,1.1-7.3,1.5-11,.4-3.1.7-6.2,1.2-9.4,1-7.1,2-14.6,2.6-21.7l.2-2.1c.5-5.9.9-8.3,3.5-10.6,8.2-8.1,13.6-22.3,14.6-38,1-15.6-2.7-30-9.7-38.4l-1.1-1.1c-3.8-3.1-8-5-13.3-6-1.2-10.2-6.1-22.6-14.5-36.9-7.5-12.7-16.4-24.1-20.5-28.7-11.3-12.4-57.4-33-67.6-35.6-11-3-33.3-3.2-42.4-3.1-9.1,0-31.4,0-42.4,3.1-10.2,2.6-56.4,23.2-67.8,35.7-4.1,4.6-12.9,16-20.4,28.7-8.5,14.3-13.4,26.7-14.5,36.9-5.2,1-9.5,3-13.2,6l-1.1,1c-6.5,7.6-10.1,20.4-9.8,35,.3,13.8,4,27.1,9.9,35.6,1.3,1.9,2.7,3.5,4.1,5.1,1.6,1.8,3.3,3.7,3.4,4.8,1.3,14,3.2,28.1,5,41.1.7,9.1,2.3,14.1,5.6,24.2l1.7,5.4c.1.4.2.7.4,1.1-22.4,9.3-43.8,25.1-60.5,44.5-18,21-29.8,44.9-34.1,69.2-1.9,11.5,6.3,34.5,24.3,68.1,6.2,12.1,19.4,19,35.9,19h351.1c13.2,0,25.3-7.2,31.5-18.9,6.4-11.7,27.2-51.1,24.4-68.2M460.9,274.5c2.9-1.1,4.1-2,5-2.9l1.9-2-.2-2.8c0-.8-.2-1.5-.5-2.4-.5-2-1.2-3.8-1.8-5.8l-1.8-5.6c-3.2-9.7-4.4-13.4-4.9-21.1v-.4c-1.8-13.1-3.7-27.1-5-40.9-.5-5.3-3.7-8.9-6.6-12.1-1.1-1.2-2.2-2.5-3.1-3.9-4.6-6.6-7.5-17.2-7.7-28.6-.2-11.3,2.2-20.8,6.5-26.1,3.6-2.8,7.8-3.4,11.4-3.6l2.5-.2c2,0,3.5-1.8,3.5-3.8v-2.5c-.6-19.5,23.5-53.1,31.9-62.5,9.1-10,53-29.8,61.6-31.9,9.7-2.6,32.4-2.7,39.1-2.7s29.3,0,39.2,2.7c8.4,2.1,52.2,21.8,61.3,31.8,8.4,9.4,32.6,43,32,62.6v2.5c0,2,1.4,3.7,3.4,3.9l2.5.2c5.3.4,8.6,1.4,11.4,3.6,4.8,6,7.2,16.9,6.4,29.1-.8,12.6-4.8,23.7-10.7,29.6-6.3,5.7-6.8,12.6-7.3,18.8l-.2,1.9c-.6,6.9-1.5,14.2-2.5,21-.5,3.3-.9,6.6-1.3,10-.4,3.4-.8,6.9-1.4,10.4-.2,1.2-3,10-4.6,15v.4c-1.2,3.2-2.1,6.2-2.8,8.4-.2.8-.4,1.5-.5,2.4l-.2,2.7,1.9,2c.8.9,2,1.7,4.9,2.9,21.5,8.4,42.2,23.4,58.2,42.1,16.5,19.2,27.3,41,31.2,63,1.6,9.7-10.8,38-23,60h0c-4,7.6-11.8,12.3-20.3,12.3h-351c-11.7,0-20.7-4.4-24.8-12.2-15.8-29.4-24.4-51.9-23-60,3.9-22,14.6-43.8,31.2-63.1,16.1-18.7,36.7-33.7,58.2-42.1"/>
    </g>
  </g>
  <g>
    <path class="st0" d="M956.6,458.8c-1.4-3.2-3.3-6.1-5.8-8.6s-5.4-4.4-8.6-5.8c-3.3-1.4-6.9-2.1-10.6-2.1s-7.2.7-10.6,2.1c-3.2,1.4-6.1,3.3-8.6,5.8s-4.4,5.4-5.8,8.6c-1.4,3.3-2.1,6.9-2.1,10.6s.7,7.2,2.1,10.6c1.4,3.2,3.3,6.1,5.8,8.6s5.4,4.4,8.6,5.8c3.3,1.4,6.9,2.1,10.6,2.1s7.2-.7,10.6-2.1c3.2-1.4,6.1-3.3,8.6-5.8s4.4-5.4,5.8-8.6c1.4-3.3,2.1-6.9,2.1-10.6s-.7-7.2-2.1-10.6ZM931.6,491.8c-12.4,0-22.4-10.1-22.4-22.4s10.1-22.4,22.4-22.4,22.4,10.1,22.4,22.4-10.1,22.4-22.4,22.4Z"/>
    <path class="st0" d="M943.8,483.3l-3.1-5c-1.4-2.3-2.5-3.8-3.3-4.7-.8-.9-1.9-1.7-3.1-2.4,2.6-.4,4.5-1.3,5.7-2.7,1.3-1.4,1.9-3.2,1.9-5.4s-.4-3.2-1.3-4.6c-.8-1.3-2-2.3-3.4-2.8s-3.7-.8-6.8-.8h-10.7c-.2,0-.4.2-.4.4v28.2c0,.2.2.4.4.4h5c.2,0,.4-.2.4-.4v-11.7c1.3,0,2.3.1,3,.3.6.2,1.2.6,1.8,1.2s1.6,2,3.1,4.3l4.1,6.1c0,.1.2.2.4.2h6c.3,0,.5-.4.4-.7h-.1ZM928.3,467.1h-3.2v-7.4h7.7c1,.2,1.7.5,2.2,1.1s.8,1.4.8,2.4-.2,1.6-.6,2.2c-.4.6-.9,1-1.6,1.2-.7.2-2.5.4-5.3.4h0Z"/>
  </g>
</svg>