<svg
    width='64'
    height='64'
    viewBox="0 0 24 24"
    fill="none"
    xmlns="http://www.w3.org/2000/svg"
>
    <path
        d="M23.496 6.20321C23.211 5.19146 22.422 4.39796 21.4058 4.11746C19.5345 3.61721 12.0121 3.61721 12.0121 3.61721C12.0121 3.61721 4.5038 3.60521 2.61305 4.11746C1.60205 4.39871 0.809299 5.19146 0.527299 6.20321C0.172549 8.12096 -0.0037008 10.062 0.0045492 12.012C0.000799205 13.9492 0.176299 15.8872 0.527299 17.793C0.809299 18.8047 1.60205 19.5982 2.61305 19.8832C4.4843 20.3835 12.0121 20.3835 12.0121 20.3835C12.0121 20.3835 19.5158 20.3835 21.4058 19.8832C22.422 19.5982 23.211 18.8055 23.496 17.793C23.8403 15.8872 24.0083 13.9492 23.9963 12.012C24.0083 10.062 23.844 8.12096 23.496 6.20321V6.20321ZM9.60905 15.6022V8.40596L15.8708 12.012L9.60905 15.6022Z"
        fill='#ffffff'
    ></path>
</svg>
